<svg width="27" height="30" viewBox="0 0 27 30" fill="none" xmlns="http://www.w3.org/2000/svg">
<path d="M13.5 15C17.6421 15 21 11.6421 21 7.5C21 3.35786 17.6421 0 13.5 0C9.35786 0 6 3.35786 6 7.5C6 11.6421 9.35786 15 13.5 15Z" fill="#263D8D"/>
<path d="M18.45 17.4L17.4 26.7L15 19.5L16.5 17.55C16.8 17.1 16.35 16.5 15.75 16.5H12.75C12.15 16.5 11.85 17.1 12 17.55L13.35 19.5L10.95 26.7L9.75 16.95C4.05 18.75 0 23.85 0 30H27C27 24.3 23.4 19.35 18.45 17.4ZM7.5 27H4.5V24.75C4.5 24.3 4.8 24 5.25 24H6.75C7.2 24 7.5 24.3 7.5 24.75V27Z" fill="#263D8D"/>
</svg>
