<svg width="32" height="30" viewBox="0 0 32 30" fill="none" xmlns="http://www.w3.org/2000/svg">
<path d="M31.4615 20.5473C31.1029 20.1828 30.6667 20.0004 30.1541 20.0004H21.2307L18.6154 22.6565C17.8717 23.3856 17 23.7503 16 23.7503C15.0002 23.7503 14.1282 23.386 13.3846 22.6565L10.7885 20.0004H1.84613C1.33341 20.0004 0.897537 20.183 0.538455 20.5473C0.17944 20.9117 0 21.3545 0 21.8756V28.1253C0 28.6462 0.17944 29.0889 0.538455 29.4534C0.897469 29.8179 1.33334 30 1.84613 30H30.1541C30.6667 30 31.1029 29.8179 31.4615 29.4534C31.8207 29.0889 32 28.6462 32 28.1253V21.8756C32 21.3545 31.8207 20.9117 31.4615 20.5473ZM24.2503 27.1292C24.0064 27.3766 23.7179 27.5003 23.3845 27.5003C23.0512 27.5003 22.763 27.3766 22.5192 27.1292C22.2758 26.8818 22.154 26.5889 22.154 26.2505C22.154 25.9121 22.2758 25.6187 22.5192 25.3717C22.763 25.1241 23.0512 25.0002 23.3845 25.0002C23.7179 25.0002 24.0064 25.1241 24.2503 25.3717C24.4937 25.6187 24.6155 25.912 24.6155 26.2505C24.6155 26.5888 24.4937 26.8818 24.2503 27.1292ZM29.1731 27.1292C28.9297 27.3766 28.6411 27.5003 28.3077 27.5003C27.9744 27.5003 27.686 27.3766 27.4423 27.1292C27.199 26.8818 27.0773 26.5889 27.0773 26.2505C27.0773 25.9121 27.199 25.6187 27.4423 25.3717C27.686 25.1241 27.9743 25.0002 28.3077 25.0002C28.641 25.0002 28.9296 25.1241 29.1731 25.3717C29.4167 25.6187 29.5386 25.912 29.5386 26.2505C29.5386 26.5888 29.4169 26.8818 29.1731 27.1292Z" fill="#263D8D"/>
<path d="M15.1347 20.8792C15.3656 21.1263 15.654 21.25 16 21.25C16.3463 21.25 16.6344 21.1263 16.8653 20.8792L25.4808 12.1291C25.8782 11.7515 25.9681 11.2957 25.75 10.7618C25.5325 10.2542 25.1541 10.0003 24.6155 10H19.6923V1.25005C19.6923 0.911556 19.5703 0.618558 19.3271 0.37119C19.0833 0.123753 18.7949 0 18.4618 0H13.5382C13.2051 0 12.9166 0.123753 12.6729 0.37119C12.4294 0.618558 12.3075 0.911487 12.3075 1.25005V10.0001H7.38445C6.84573 10.0001 6.46772 10.2542 6.24975 10.7619C6.03192 11.2956 6.12157 11.7516 6.51911 12.1291L15.1347 20.8792Z" fill="#263D8D"/>
</svg>
